# xmcd
#
# Track frame offsets: 
#        150
#        62625
#        139800
#        169199
#
# Disc length: 3113 seconds
#
# Revision: 0
# Processed by: cddbd v1.5.2PL0 Copyright (c) Steve Scherf et al.
# Submitted via: ExactAudioCopy v1.0b3
#
DISCID=330c2704
DTITLE=The Legendary Pink Dots - The Creature That Tasted Sound
DYEAR=2012
DGENRE=Psychedelic
TTITLE0=The Creature That Tasted Sound
TTITLE1=Premonition 34
TTITLE2=Poor Louis
TTITLE3=29.12.11
EXTD=
EXTT0=
EXTT1=
EXTT2=
EXTT3=
PLAYORDER=
